<svg width="1546" height="506" viewBox="0 0 1546 506" fill="none" xmlns="http://www.w3.org/2000/svg">
<g filter="url(#filter0_g_41_28)">
<path d="M83.1683 253.371H7.4V498.429H1538.4V202.944H1500.52L1439.18 147.209H1356.2C1338.4 147.209 1305.48 121.258 1291.25 108.283H1215.48L1169.78 74.6647H1078.38L991.185 35.7386L922.632 7.42871C889.759 16.8653 820.285 35.7386 805.372 35.7386H729.002H641.809C616.553 46.9446 556.9 77.1419 520.339 108.283C474.638 147.209 463.212 147.209 421.72 147.209C388.526 147.209 364.593 184.366 356.776 202.944H307.466H220.273H174.571L83.1683 253.371Z" fill="#913B2F"/>
<path d="M83.1683 253.371H7.4V498.429H1538.4V202.944H1500.52L1439.18 147.209H1356.2C1338.4 147.209 1305.48 121.258 1291.25 108.283H1215.48L1169.78 74.6647H1078.38L991.185 35.7386L922.632 7.42871C889.759 16.8653 820.285 35.7386 805.372 35.7386H729.002H641.809C616.553 46.9446 556.9 77.1419 520.339 108.283C474.638 147.209 463.212 147.209 421.72 147.209C388.526 147.209 364.593 184.366 356.776 202.944H307.466H220.273H174.571L83.1683 253.371Z" stroke="#913B2F"/>
</g>
<defs>
<filter id="filter0_g_41_28" x="0" y="0.00039053" width="1545.8" height="505.828" filterUnits="userSpaceOnUse" color-interpolation-filters="sRGB">
<feFlood flood-opacity="0" result="BackgroundImageFix"/>
<feBlend mode="normal" in="SourceGraphic" in2="BackgroundImageFix" result="shape"/>
<feTurbulence type="fractalNoise" baseFrequency="0.43478262424468994 0.43478262424468994" numOctaves="3" seed="9897" />
<feDisplacementMap in="shape" scale="13.800000190734863" xChannelSelector="R" yChannelSelector="G" result="displacedImage" width="100%" height="100%" />
<feMerge result="effect1_texture_41_28">
<feMergeNode in="displacedImage"/>
</feMerge>
</filter>
</defs>
</svg>
